<?xml version="1.0" encoding="utf-8"?>
<!-- Generator: Adobe Illustrator 24.0.1, SVG Export Plug-In . SVG Version: 6.00 Build 0)  -->
<svg version="1.1" id="Layer_1" xmlns="http://www.w3.org/2000/svg" xmlns:xlink="http://www.w3.org/1999/xlink" x="0px" y="0px"
	 viewBox="0 0 2498 1000" style="enable-background:new 0 0 2498 1000;" xml:space="preserve">
<style type="text/css">
	.st0{display:none;fill:#C98800;}
	.st1{fill:none;stroke:#FFFFFF;stroke-width:20;stroke-miterlimit:10;}
	.st2{fill:none;stroke:#FFFFFF;stroke-width:10;stroke-miterlimit:10;}
	.st3{fill:#FFFFFF;stroke:#FFFFFF;stroke-width:20;stroke-miterlimit:10;}
	.st4{fill:#FFFFFF;}
</style>
<rect x="0.5" class="st0" width="2497" height="1000"/>
<g>
	<g>
		<path class="st4" d="M1040.95,119.8h39.73l40.55,179.87l40.55-179.87h39.73L1139.11,367h-35.79L1040.95,119.8z"/>
		<path class="st4" d="M1231.37,356.46c-8.32-8.73-12.48-21.82-12.48-39.27c0-18.25,4.79-32.05,14.36-41.4
			c9.58-9.35,23.77-14.03,42.6-14.03h31.35l2.3,31.28h-32.99c-7.44,0-13.05,2.01-16.83,6.04c-3.78,4.02-5.66,10.06-5.66,18.11
			c0,6.8,1.94,11.84,5.83,15.13c3.88,3.29,9.71,4.93,17.48,4.93c9.52,0,16.69-1.7,21.5-5.1c4.81-3.4,7.22-8.44,7.22-15.13
			l3.28,20.23c-0.98,7.14-3.28,13.12-6.89,17.94c-3.61,4.82-8.29,8.42-14.04,10.8c-5.75,2.38-12.39,3.57-19.94,3.57
			C1252.05,369.55,1239.68,365.18,1231.37,356.46z M1306.06,247.14c0-7.82-2.16-13.91-6.48-18.28c-4.32-4.36-10.48-6.55-18.47-6.55
			c-5.69,0-10.78,1.36-15.27,4.08c-4.49,2.72-8.04,6.46-10.67,11.22l-30.37-11.22c3.5-12.24,10.15-21.76,19.95-28.56
			c9.79-6.8,21.97-10.2,36.52-10.2c12.58,0,23.36,2.32,32.34,6.97c8.97,4.65,15.84,11.36,20.6,20.15
			c4.76,8.78,7.14,19.35,7.14,31.71V367h-35.29V247.14z"/>
		<path class="st4" d="M1382.22,190.52h37.75V367h-37.75V190.52z M1467.75,251.73c0-8.95-2.08-15.78-6.24-20.49
			c-4.16-4.7-10.18-7.06-18.06-7.06c-7.66,0-13.49,2.27-17.48,6.8c-4,4.53-5.99,11.11-5.99,19.72l-3.45-29.58
			c4.27-10.99,10.01-19.32,17.24-24.99c7.22-5.67,15.59-8.5,25.12-8.5c14.77,0,26.21,5.13,34.31,15.39
			c8.1,10.26,12.15,24.85,12.15,43.78V367h-37.59V251.73z"/>
		<path class="st4" d="M1571.49,362.07c-9.52-4.99-16.8-12.38-21.83-22.19c-5.04-9.8-7.55-21.56-7.55-35.28v-51.17
			c0-13.71,2.52-25.53,7.55-35.45c5.03-9.92,12.31-17.43,21.83-22.53c9.52-5.1,21.01-7.65,34.47-7.65c11.38,0,21.07,1.7,29.05,5.1
			c7.99,3.4,14.45,8.7,19.37,15.9c4.92,7.2,8.15,16.07,9.69,26.61l-34.47,11.56c-1.53-7.59-4.24-13.29-8.13-17.09
			c-3.89-3.8-9.06-5.7-15.51-5.7c-8.21,0-14.64,2.58-19.29,7.74c-4.65,5.16-6.98,12.61-6.98,22.36v49.47
			c0,9.41,2.3,16.63,6.89,21.68c4.6,5.04,11.05,7.57,19.37,7.57c6.46,0,11.66-1.84,15.59-5.53c3.94-3.68,6.62-9.15,8.04-16.41
			l34.64,12.24c-1.64,10.43-4.87,19.1-9.68,26.01c-4.82,6.91-11.3,12.02-19.45,15.3c-8.15,3.29-17.87,4.93-29.14,4.93
			C1592.5,369.55,1581.01,367.05,1571.49,362.07z"/>
		<path class="st4" d="M1717.26,362.15c-9.08-4.93-16.03-12.13-20.85-21.59c-4.82-9.46-7.22-20.83-7.22-34.09v-56.44
			c0-13.15,2.41-24.4,7.22-33.75c4.81-9.35,11.76-16.46,20.85-21.34c9.08-4.87,20.03-7.31,32.83-7.31c12.8,0,23.77,2.44,32.91,7.31
			c9.14,4.87,16.09,11.99,20.85,21.34c4.76,9.35,7.14,20.6,7.14,33.75v56.95c0,13.15-2.38,24.4-7.14,33.75s-11.71,16.49-20.85,21.42
			c-9.14,4.93-20.11,7.4-32.91,7.4C1737.29,369.55,1726.34,367.08,1717.26,362.15z M1767.49,325.77c4.05-4.7,6.07-11.42,6.07-20.15
			v-54.4c0-8.5-2.03-15.07-6.07-19.72c-4.05-4.65-9.85-6.97-17.4-6.97c-7.44,0-13.21,2.32-17.32,6.97
			c-4.1,4.65-6.16,11.22-6.16,19.72v54.4c0,8.73,2.02,15.44,6.07,20.15c4.05,4.7,9.85,7.06,17.4,7.06
			C1757.64,332.82,1763.44,330.47,1767.49,325.77z"/>
		<path class="st4" d="M1886.01,309.19c0,7.82,2,13.86,5.99,18.11c3.99,4.25,9.77,6.38,17.32,6.38c7.44,0,13.13-2.04,17.07-6.12
			s5.91-10.09,5.91-18.02l2.3,28.56c-3.07,9.75-7.85,17.43-14.36,23.04c-6.51,5.61-14.53,8.42-24.05,8.42
			c-15.32,0-27.08-5.1-35.29-15.3c-8.21-10.2-12.31-24.99-12.31-44.37V190.52h37.43V309.19z M1932.3,190.52h37.26V367h-37.26V190.52
			z"/>
		<path class="st4" d="M2095.8,190.52h37.76L2078.73,367h-28.23l-54.83-176.47h37.59l31.35,120.88L2095.8,190.52z"/>
		<path class="st4" d="M2185.18,361.64c-9.58-5.27-16.91-12.95-22-23.04c-5.09-10.09-7.63-22.38-7.63-36.89V258.7
			c0-14.96,2.46-27.74,7.39-38.34c4.92-10.6,12.04-18.67,21.34-24.23c9.3-5.55,20.57-8.33,33.82-8.33c12.8,0,23.72,2.95,32.75,8.84
			c9.03,5.89,15.92,14.56,20.68,26.01c4.76,11.45,7.14,25.11,7.14,40.97v30.26h-96.19v-29.41h60.74l0.17-11.05
			c-0.11-9.52-2.44-17.06-6.98-22.61c-4.54-5.55-10.64-8.33-18.3-8.33c-8.65,0-15.32,3.03-20.03,9.1
			c-4.71,6.06-7.06,14.48-7.06,25.25v45.9c0,10.09,2.52,17.85,7.55,23.29c5.03,5.44,12.09,8.16,21.18,8.16
			c6.13,0,11.24-1.56,15.35-4.68c4.1-3.12,7.14-7.68,9.11-13.69l32.5,11.9c-3.17,13.94-9.55,24.4-19.12,31.37
			c-9.58,6.97-22.03,10.46-37.35,10.46C2206.44,369.55,2194.76,366.91,2185.18,361.64z"/>
		<path class="st4" d="M2315.6,190.52h38.41V367h-38.41V190.52z M2396.37,227.5c-2.63-0.74-5.64-1.1-9.03-1.1
			c-10.51,0-18.66,3.06-24.46,9.18c-5.8,6.12-8.76,14.62-8.86,25.5l-3.45-39.78c5.03-10.65,11.6-18.93,19.7-24.82
			c8.1-5.89,17.02-8.84,26.76-8.84c3.61,0,6.95,0.6,10.01,1.79c3.06,1.19,5.69,2.92,7.88,5.19l-11.82,36.21
			C2401.23,229.35,2398.99,228.24,2396.37,227.5z"/>
		<path class="st4" d="M1060.65,537.45h37.43v247.37h-37.43V537.45z M1077.06,644.21h62.87c4.92,0,9.28-1.1,13.05-3.32
			c3.78-2.21,6.65-5.38,8.62-9.52c1.97-4.14,3.01-9.1,3.12-14.88v-13.43c0-5.67-0.99-10.65-2.96-14.96
			c-1.97-4.31-4.84-7.62-8.62-9.95c-3.78-2.32-8.18-3.49-13.21-3.49h-62.87v-37.23h62.05c13.13,0,24.51,2.58,34.14,7.74
			c9.63,5.16,17.07,12.58,22.33,22.27s7.88,21.11,7.88,34.26v14.45c0,13.38-2.63,24.96-7.88,34.77
			c-5.25,9.8-12.72,17.34-22.41,22.61c-9.68,5.27-21.04,7.91-34.06,7.91h-62.05V644.21z M1124.34,673.8l37.1-7.82l50.39,118.84
			h-43.01L1124.34,673.8z"/>
		<path class="st4" d="M1269.29,779.97c-9.08-4.93-16.03-12.13-20.85-21.59c-4.82-9.46-7.22-20.83-7.22-34.09v-56.44
			c0-13.15,2.41-24.4,7.22-33.75c4.81-9.35,11.76-16.46,20.85-21.34c9.08-4.87,20.03-7.31,32.83-7.31c12.8,0,23.77,2.44,32.91,7.31
			c9.14,4.88,16.09,11.99,20.85,21.34s7.14,20.6,7.14,33.75v56.95c0,13.15-2.38,24.4-7.14,33.75s-11.71,16.49-20.85,21.42
			c-9.14,4.93-20.11,7.4-32.91,7.4C1289.31,787.36,1278.37,784.9,1269.29,779.97z M1319.52,743.58c4.05-4.7,6.07-11.42,6.07-20.15
			v-54.4c0-8.5-2.03-15.07-6.07-19.72c-4.05-4.65-9.85-6.97-17.4-6.97c-7.44,0-13.21,2.32-17.32,6.97
			c-4.1,4.65-6.16,11.22-6.16,19.72v54.4c0,8.73,2.02,15.44,6.07,20.15c4.05,4.7,9.85,7.06,17.4,7.06
			C1309.67,750.64,1315.47,748.29,1319.52,743.58z"/>
		<path class="st4" d="M1425.89,779.88c-9.52-4.99-16.8-12.38-21.83-22.19c-5.04-9.8-7.55-21.56-7.55-35.28v-51.17
			c0-13.71,2.52-25.53,7.55-35.45c5.03-9.92,12.31-17.43,21.83-22.53c9.52-5.1,21.01-7.65,34.47-7.65c11.38,0,21.07,1.7,29.05,5.1
			c7.99,3.4,14.45,8.7,19.37,15.9c4.92,7.2,8.15,16.07,9.69,26.61L1484,664.79c-1.53-7.59-4.24-13.29-8.13-17.09
			c-3.89-3.8-9.06-5.7-15.51-5.7c-8.21,0-14.64,2.58-19.29,7.74c-4.65,5.16-6.98,12.61-6.98,22.36v49.47
			c0,9.41,2.3,16.63,6.89,21.68c4.6,5.04,11.05,7.57,19.37,7.57c6.46,0,11.66-1.84,15.59-5.53c3.94-3.68,6.62-9.15,8.04-16.41
			l34.64,12.24c-1.64,10.43-4.87,19.1-9.68,26.01c-4.82,6.91-11.3,12.01-19.45,15.3c-8.15,3.29-17.87,4.93-29.14,4.93
			C1446.9,787.36,1435.41,784.87,1425.89,779.88z"/>
		<path class="st4" d="M1547.69,537.62h37.43v247.2h-37.43V537.62z M1566.9,716.81l71.41-108.47h40.38L1568.7,764.58L1566.9,716.81z
			 M1600.55,691.31l25.77-24.65l59.92,118.16h-41.37L1600.55,691.31z"/>
		<path class="st4" d="M1729.66,779.46c-9.58-5.27-16.91-12.95-22-23.04c-5.09-10.09-7.63-22.38-7.63-36.89v-43.01
			c0-14.96,2.46-27.74,7.39-38.34c4.92-10.6,12.04-18.67,21.34-24.23c9.3-5.55,20.57-8.33,33.82-8.33c12.8,0,23.72,2.95,32.75,8.84
			c9.03,5.89,15.92,14.57,20.68,26.01c4.76,11.45,7.14,25.11,7.14,40.97v30.26h-96.19V682.3h60.74l0.17-11.05
			c-0.11-9.52-2.44-17.06-6.98-22.61c-4.54-5.55-10.64-8.33-18.3-8.33c-8.65,0-15.32,3.03-20.03,9.1
			c-4.71,6.06-7.06,14.48-7.06,25.25v45.9c0,10.09,2.52,17.85,7.55,23.29c5.03,5.44,12.09,8.16,21.18,8.16
			c6.13,0,11.24-1.56,15.35-4.68c4.1-3.12,7.14-7.68,9.11-13.69l32.5,11.9c-3.17,13.94-9.55,24.4-19.12,31.37
			c-9.58,6.97-22.03,10.46-37.35,10.46C1750.91,787.36,1739.23,784.73,1729.66,779.46z"/>
		<path class="st4" d="M1846.94,608.34h77.81v35.02h-77.81V608.34z M1873.87,773.93c-6.79-7.82-10.18-19.49-10.18-35.02V557h37.59
			v177.49c0,4.42,0.9,7.82,2.71,10.2c1.81,2.38,4.4,3.57,7.8,3.57h12.97v37.4h-19.04C1891.27,785.66,1880.65,781.75,1873.87,773.93z
			"/>
		<path class="st4" d="M1959.06,608.34h38.41v176.47h-38.41V608.34z M2039.82,645.32c-2.63-0.74-5.64-1.11-9.03-1.11
			c-10.51,0-18.66,3.06-24.46,9.18c-5.8,6.12-8.76,14.62-8.86,25.5l-3.45-39.78c5.03-10.65,11.6-18.93,19.7-24.82
			c8.1-5.89,17.02-8.84,26.76-8.84c3.61,0,6.95,0.6,10.01,1.79c3.06,1.19,5.69,2.92,7.88,5.19l-11.82,36.21
			C2044.69,647.16,2042.45,646.06,2039.82,645.32z"/>
		<path class="st4" d="M2068.55,608.34h36.61l44.65,153.01l-20.68,39.1L2068.55,608.34z M2204.8,608.34l-61.39,217.78
			c-2.19,7.59-5.36,13.77-9.52,18.53c-4.16,4.76-9.47,8.25-15.92,10.46c-6.46,2.21-14.28,3.32-23.47,3.32h-8.37v-37.74h8.7
			c6.13,0,10.92-1.25,14.36-3.74c3.45-2.49,6.04-6.86,7.8-13.09l51.22-195.51H2204.8z"/>
	</g>
</g>
<path class="st1" d="M-128.5,982.86l352.44-214.98c11.74-7.22,26.74-6.31,37.52,2.26L429.5,903.86"/>
<path class="st1" d="M919.5,920.86L624.74,661.23c-14.25-12.56-35.21-13.82-50.86-3.05L330.93,825.38"/>
<g>
	<g>
		<path class="st1" d="M339.15,379.82c0,0-14.72-38.23-19.22-89.75c-2.04-23.34-1.99-49.41,2.48-75.89
			c9.85-58.35,54.42-165.04,54.42-165.04s47.86,101.36,54.42,165.04c7.14,69.3-8.93,127.21-16.74,165.65
			C383.52,404.93,370.12,404.09,339.15,379.82z"/>
		<polygon class="st3" points="260.88,384.88 318.63,279.4 333.02,360.77 		"/>
		<polygon class="st3" points="490.12,384.97 432.37,279.48 417.98,360.85 		"/>
	</g>
	<polygon class="st3" points="376.29,481.26 351.67,541.59 376.29,690.59 400.92,541.59 	"/>
	<polygon class="st3" points="304,446.92 294.85,469.35 304,524.73 313.15,469.35 	"/>
	<polygon class="st3" points="447,446.92 437.85,469.35 447,524.73 456.15,469.35 	"/>
</g>
</svg>
